<svg id="visual" viewBox="0 0 960 540" width="960" height="540" xmlns="http://www.w3.org/2000/svg" xmlns:xlink="http://www.w3.org/1999/xlink" version="1.1"><g stroke-width="1" stroke-linejoin="bevel"><path d="M515.3 262L553.3 353L617 332Z" fill="#5a5858" stroke="#5a5858"></path><path d="M617 332L644 241L515.3 262Z" fill="#3c3a3a" stroke="#3c3a3a"></path><path d="M389.7 419L565.3 415L553.3 353Z" fill="#383636" stroke="#383636"></path><path d="M553.3 353L565.3 415L617 332Z" fill="#504e4e" stroke="#504e4e"></path><path d="M761.7 297L664 194L644 241Z" fill="#656363" stroke="#656363"></path><path d="M644 241L506.3 156L515.3 262Z" fill="#383636" stroke="#383636"></path><path d="M664 194L506.3 156L644 241Z" fill="#605e5e" stroke="#605e5e"></path><path d="M387.7 298L411.7 320L515.3 262Z" fill="#5a5858" stroke="#5a5858"></path><path d="M515.3 262L411.7 320L553.3 353Z" fill="#555353" stroke="#555353"></path><path d="M545.3 540L628 454L565.3 415Z" fill="#464444" stroke="#464444"></path><path d="M565.3 415L628 454L617 332Z" fill="#4b4949" stroke="#4b4949"></path><path d="M617 332L761.7 297L644 241Z" fill="#413f3f" stroke="#413f3f"></path><path d="M506.3 156L432.7 188L515.3 262Z" fill="#333131" stroke="#333131"></path><path d="M432.7 188L387.7 298L515.3 262Z" fill="#605e5e" stroke="#605e5e"></path><path d="M767.7 376L761.7 297L617 332Z" fill="#464444" stroke="#464444"></path><path d="M628 454L767.7 376L617 332Z" fill="#605e5e" stroke="#605e5e"></path><path d="M753.7 117L678 106L664 194Z" fill="#413f3f" stroke="#413f3f"></path><path d="M664 194L554.3 73L506.3 156Z" fill="#555353" stroke="#555353"></path><path d="M337 390L389.7 419L411.7 320Z" fill="#383636" stroke="#383636"></path><path d="M411.7 320L389.7 419L553.3 353Z" fill="#333131" stroke="#333131"></path><path d="M678 106L554.3 73L664 194Z" fill="#555353" stroke="#555353"></path><path d="M506.3 156L401.7 95L432.7 188Z" fill="#504e4e" stroke="#504e4e"></path><path d="M417.7 540L545.3 540L565.3 415Z" fill="#383636" stroke="#383636"></path><path d="M628 454L777.7 436L767.7 376Z" fill="#333131" stroke="#333131"></path><path d="M387.7 298L337 390L411.7 320Z" fill="#605e5e" stroke="#605e5e"></path><path d="M389.7 419L417.7 540L565.3 415Z" fill="#605e5e" stroke="#605e5e"></path><path d="M311 261L337 390L387.7 298Z" fill="#4b4949" stroke="#4b4949"></path><path d="M761.7 297L781.7 157L664 194Z" fill="#504e4e" stroke="#504e4e"></path><path d="M848.3 215L781.7 157L761.7 297Z" fill="#464444" stroke="#464444"></path><path d="M674 540L777.7 436L628 454Z" fill="#333131" stroke="#333131"></path><path d="M767.7 376L821.3 368L761.7 297Z" fill="#605e5e" stroke="#605e5e"></path><path d="M781.7 157L753.7 117L664 194Z" fill="#4b4949" stroke="#4b4949"></path><path d="M678 106L612 0L554.3 73Z" fill="#333131" stroke="#333131"></path><path d="M554.3 73L401.7 95L506.3 156Z" fill="#656363" stroke="#656363"></path><path d="M432.7 188L311 261L387.7 298Z" fill="#656363" stroke="#656363"></path><path d="M326 165L311 261L432.7 188Z" fill="#3c3a3a" stroke="#3c3a3a"></path><path d="M777.7 436L821.3 368L767.7 376Z" fill="#333131" stroke="#333131"></path><path d="M545.3 540L674 540L628 454Z" fill="#3c3a3a" stroke="#3c3a3a"></path><path d="M821.3 368L842.3 279L761.7 297Z" fill="#333131" stroke="#333131"></path><path d="M401.7 95L326 165L432.7 188Z" fill="#656363" stroke="#656363"></path><path d="M323 462L417.7 540L389.7 419Z" fill="#383636" stroke="#383636"></path><path d="M842.3 279L848.3 215L761.7 297Z" fill="#383636" stroke="#383636"></path><path d="M817.3 0L754.7 0L753.7 117Z" fill="#555353" stroke="#555353"></path><path d="M754.7 0L612 0L678 106Z" fill="#656363" stroke="#656363"></path><path d="M554.3 73L504.3 0L401.7 95Z" fill="#605e5e" stroke="#605e5e"></path><path d="M201.3 430L323 462L337 390Z" fill="#605e5e" stroke="#605e5e"></path><path d="M337 390L323 462L389.7 419Z" fill="#333131" stroke="#333131"></path><path d="M612 0L504.3 0L554.3 73Z" fill="#656363" stroke="#656363"></path><path d="M401.7 95L307 57L326 165Z" fill="#383636" stroke="#383636"></path><path d="M777.7 436L877.3 444L821.3 368Z" fill="#605e5e" stroke="#605e5e"></path><path d="M674 540L753.7 540L777.7 436Z" fill="#333131" stroke="#333131"></path><path d="M504.3 0L440.7 0L401.7 95Z" fill="#504e4e" stroke="#504e4e"></path><path d="M326 165L250.3 252L311 261Z" fill="#5a5858" stroke="#5a5858"></path><path d="M311 261L250.3 252L337 390Z" fill="#383636" stroke="#383636"></path><path d="M230.3 175L250.3 252L326 165Z" fill="#555353" stroke="#555353"></path><path d="M866.3 540L877.3 444L777.7 436Z" fill="#605e5e" stroke="#605e5e"></path><path d="M960 379L960 252L842.3 279Z" fill="#555353" stroke="#555353"></path><path d="M842.3 279L960 252L848.3 215Z" fill="#3c3a3a" stroke="#3c3a3a"></path><path d="M852.3 82L753.7 117L781.7 157Z" fill="#605e5e" stroke="#605e5e"></path><path d="M753.7 117L754.7 0L678 106Z" fill="#605e5e" stroke="#605e5e"></path><path d="M322 0L307 57L401.7 95Z" fill="#3c3a3a" stroke="#3c3a3a"></path><path d="M848.3 215L852.3 82L781.7 157Z" fill="#333131" stroke="#333131"></path><path d="M960 202L852.3 82L848.3 215Z" fill="#5a5858" stroke="#5a5858"></path><path d="M215.3 97L230.3 175L326 165Z" fill="#555353" stroke="#555353"></path><path d="M323 462L282 540L417.7 540Z" fill="#656363" stroke="#656363"></path><path d="M201.3 430L282 540L323 462Z" fill="#5a5858" stroke="#5a5858"></path><path d="M201.3 430L337 390L181.3 386Z" fill="#413f3f" stroke="#413f3f"></path><path d="M440.7 0L322 0L401.7 95Z" fill="#656363" stroke="#656363"></path><path d="M307 57L215.3 97L326 165Z" fill="#5a5858" stroke="#5a5858"></path><path d="M852.3 82L817.3 0L753.7 117Z" fill="#555353" stroke="#555353"></path><path d="M753.7 540L866.3 540L777.7 436Z" fill="#504e4e" stroke="#504e4e"></path><path d="M181.3 386L337 390L250.3 252Z" fill="#333131" stroke="#333131"></path><path d="M960 379L821.3 368L877.3 444Z" fill="#383636" stroke="#383636"></path><path d="M960 379L842.3 279L821.3 368Z" fill="#605e5e" stroke="#605e5e"></path><path d="M852.3 82L960 0L817.3 0Z" fill="#656363" stroke="#656363"></path><path d="M142.7 211L181.3 386L250.3 252Z" fill="#555353" stroke="#555353"></path><path d="M960 421L960 379L877.3 444Z" fill="#5a5858" stroke="#5a5858"></path><path d="M960 252L960 202L848.3 215Z" fill="#4b4949" stroke="#4b4949"></path><path d="M213.3 0L215.3 97L307 57Z" fill="#4b4949" stroke="#4b4949"></path><path d="M230.3 175L142.7 211L250.3 252Z" fill="#504e4e" stroke="#504e4e"></path><path d="M960 540L960 421L877.3 444Z" fill="#5a5858" stroke="#5a5858"></path><path d="M118.7 108L142.7 211L230.3 175Z" fill="#464444" stroke="#464444"></path><path d="M960 202L960 82L852.3 82Z" fill="#605e5e" stroke="#605e5e"></path><path d="M102.7 441L201.3 430L181.3 386Z" fill="#383636" stroke="#383636"></path><path d="M102.7 441L182.3 540L201.3 430Z" fill="#555353" stroke="#555353"></path><path d="M201.3 430L182.3 540L282 540Z" fill="#4b4949" stroke="#4b4949"></path><path d="M322 0L213.3 0L307 57Z" fill="#4b4949" stroke="#4b4949"></path><path d="M215.3 97L118.7 108L230.3 175Z" fill="#464444" stroke="#464444"></path><path d="M866.3 540L960 540L877.3 444Z" fill="#3c3a3a" stroke="#3c3a3a"></path><path d="M142.7 211L87.7 356L181.3 386Z" fill="#413f3f" stroke="#413f3f"></path><path d="M66.7 248L87.7 356L142.7 211Z" fill="#413f3f" stroke="#413f3f"></path><path d="M110.7 0L118.7 108L215.3 97Z" fill="#656363" stroke="#656363"></path><path d="M960 82L960 0L852.3 82Z" fill="#464444" stroke="#464444"></path><path d="M87.7 356L102.7 441L181.3 386Z" fill="#5a5858" stroke="#5a5858"></path><path d="M118.7 108L66.7 248L142.7 211Z" fill="#656363" stroke="#656363"></path><path d="M87.7 356L0 380L102.7 441Z" fill="#4b4949" stroke="#4b4949"></path><path d="M0 467L118.7 540L102.7 441Z" fill="#656363" stroke="#656363"></path><path d="M102.7 441L118.7 540L182.3 540Z" fill="#504e4e" stroke="#504e4e"></path><path d="M0 163L0 250L66.7 248Z" fill="#605e5e" stroke="#605e5e"></path><path d="M213.3 0L110.7 0L215.3 97Z" fill="#605e5e" stroke="#605e5e"></path><path d="M0 163L66.7 248L118.7 108Z" fill="#464444" stroke="#464444"></path><path d="M66.7 248L0 250L87.7 356Z" fill="#504e4e" stroke="#504e4e"></path><path d="M0 250L0 380L87.7 356Z" fill="#4b4949" stroke="#4b4949"></path><path d="M0 108L0 163L118.7 108Z" fill="#3c3a3a" stroke="#3c3a3a"></path><path d="M0 380L0 467L102.7 441Z" fill="#504e4e" stroke="#504e4e"></path><path d="M110.7 0L0 108L118.7 108Z" fill="#383636" stroke="#383636"></path><path d="M0 467L0 540L118.7 540Z" fill="#504e4e" stroke="#504e4e"></path><path d="M110.7 0L0 0L0 108Z" fill="#333131" stroke="#333131"></path></g></svg>